<svg xmlns="http://www.w3.org/2000/svg" viewBox="0 0 1920 1080"><g transform="
          rotate(233 960 540) 
          translate(-980.7470260400125 -551.6702021475071)
          scale(2.0216114854583465)
        "><rect width="1920" height="1080" fill="rgb(17, 25, 31)"></rect><g transform="translate(0, 0)"><path fill="rgb(19, 28, 35)" fill-opacity="1" d="M0,352.943L5.424,350.075C10.847,347.207,21.695,341.471,32.542,340.581C43.39,339.692,54.237,343.65,65.085,344.095C75.932,344.54,86.78,341.472,97.627,303.183C108.475,264.894,119.322,191.383,130.169,185.175C141.017,178.967,151.864,240.06,162.712,221.336C173.559,202.612,184.407,104.069,195.254,98.48C206.102,92.892,216.949,180.258,227.797,202.019C238.644,223.78,249.492,179.937,260.339,139.356C271.186,98.774,282.034,61.455,292.881,80.719C303.729,99.983,314.576,175.829,325.424,189.505C336.271,203.181,347.119,154.687,357.966,130.414C368.814,106.141,379.661,106.09,390.508,141.274C401.356,176.458,412.203,246.877,423.051,284.697C433.898,322.517,444.746,327.739,455.593,284.675C466.441,241.611,477.288,150.263,488.136,112.623C498.983,74.983,509.831,91.052,520.678,126.273C531.525,161.493,542.373,215.866,553.22,254.33C564.068,292.794,574.915,315.35,585.763,300.514C596.61,285.679,607.458,233.452,618.305,180.313C629.153,127.174,640,73.123,650.847,43.365C661.695,13.606,672.542,8.141,683.39,41.079C694.237,74.017,705.085,145.358,715.932,167.782C726.78,190.206,737.627,163.713,748.475,136.177C759.322,108.642,770.169,80.062,781.017,72.255C791.864,64.448,802.712,77.412,813.559,86.608C824.407,95.804,835.254,101.232,846.102,133.056C856.949,164.88,867.797,223.101,878.644,262.75C889.492,302.399,900.339,323.476,911.186,336.118C922.034,348.761,932.881,352.969,943.729,328.624C954.576,304.279,965.424,251.381,976.271,209.295C987.119,167.208,997.966,135.933,1008.814,108.637C1019.661,81.34,1030.508,58.022,1041.356,92.473C1052.203,126.925,1063.051,219.145,1073.898,272.167C1084.746,325.189,1095.593,339.013,1106.441,346.415C1117.288,353.817,1128.136,354.798,1138.983,334.281C1149.831,313.765,1160.678,271.752,1171.525,245.517C1182.373,219.282,1193.22,208.825,1204.068,187.458C1214.915,166.092,1225.763,133.817,1236.61,159.31C1247.458,184.803,1258.305,268.065,1269.153,302.787C1280,337.509,1290.847,323.691,1301.695,319.763C1312.542,315.835,1323.39,321.796,1334.237,314.88C1345.085,307.964,1355.932,288.17,1366.78,238.789C1377.627,189.409,1388.475,110.442,1399.322,119.898C1410.169,129.355,1421.017,227.234,1431.864,249.472C1442.712,271.71,1453.559,218.307,1464.407,172.896C1475.254,127.486,1486.102,90.069,1496.949,89.297C1507.797,88.526,1518.644,124.401,1529.492,174.393C1540.339,224.385,1551.186,288.494,1562.034,292.339C1572.881,296.184,1583.729,239.766,1594.576,206.52C1605.424,173.273,1616.271,163.2,1627.119,136.43C1637.966,109.66,1648.814,66.193,1659.661,43.945C1670.508,21.697,1681.356,20.667,1692.203,40.238C1703.051,59.809,1713.898,99.98,1724.746,154.424C1735.593,208.868,1746.441,277.584,1757.288,300.884C1768.136,324.185,1778.983,302.069,1789.831,252.55C1800.678,203.031,1811.525,126.11,1822.373,135.574C1833.22,145.039,1844.068,240.889,1854.915,255.862C1865.763,270.835,1876.61,204.929,1887.458,189.483C1898.305,174.037,1909.153,209.051,1914.576,226.557L1920,244.064L1920,1080L1914.576,1080C1909.153,1080,1898.305,1080,1887.458,1080C1876.61,1080,1865.763,1080,1854.915,1080C1844.068,1080,1833.22,1080,1822.373,1080C1811.525,1080,1800.678,1080,1789.831,1080C1778.983,1080,1768.136,1080,1757.288,1080C1746.441,1080,1735.593,1080,1724.746,1080C1713.898,1080,1703.051,1080,1692.203,1080C1681.356,1080,1670.508,1080,1659.661,1080C1648.814,1080,1637.966,1080,1627.119,1080C1616.271,1080,1605.424,1080,1594.576,1080C1583.729,1080,1572.881,1080,1562.034,1080C1551.186,1080,1540.339,1080,1529.492,1080C1518.644,1080,1507.797,1080,1496.949,1080C1486.102,1080,1475.254,1080,1464.407,1080C1453.559,1080,1442.712,1080,1431.864,1080C1421.017,1080,1410.169,1080,1399.322,1080C1388.475,1080,1377.627,1080,1366.78,1080C1355.932,1080,1345.085,1080,1334.237,1080C1323.39,1080,1312.542,1080,1301.695,1080C1290.847,1080,1280,1080,1269.153,1080C1258.305,1080,1247.458,1080,1236.61,1080C1225.763,1080,1214.915,1080,1204.068,1080C1193.22,1080,1182.373,1080,1171.525,1080C1160.678,1080,1149.831,1080,1138.983,1080C1128.136,1080,1117.288,1080,1106.441,1080C1095.593,1080,1084.746,1080,1073.898,1080C1063.051,1080,1052.203,1080,1041.356,1080C1030.508,1080,1019.661,1080,1008.814,1080C997.966,1080,987.119,1080,976.271,1080C965.424,1080,954.576,1080,943.729,1080C932.881,1080,922.034,1080,911.186,1080C900.339,1080,889.492,1080,878.644,1080C867.797,1080,856.949,1080,846.102,1080C835.254,1080,824.407,1080,813.559,1080C802.712,1080,791.864,1080,781.017,1080C770.169,1080,759.322,1080,748.475,1080C737.627,1080,726.78,1080,715.932,1080C705.085,1080,694.237,1080,683.39,1080C672.542,1080,661.695,1080,650.847,1080C640,1080,629.153,1080,618.305,1080C607.458,1080,596.61,1080,585.763,1080C574.915,1080,564.068,1080,553.22,1080C542.373,1080,531.525,1080,520.678,1080C509.831,1080,498.983,1080,488.136,1080C477.288,1080,466.441,1080,455.593,1080C444.746,1080,433.898,1080,423.051,1080C412.203,1080,401.356,1080,390.508,1080C379.661,1080,368.814,1080,357.966,1080C347.119,1080,336.271,1080,325.424,1080C314.576,1080,303.729,1080,292.881,1080C282.034,1080,271.186,1080,260.339,1080C249.492,1080,238.644,1080,227.797,1080C216.949,1080,206.102,1080,195.254,1080C184.407,1080,173.559,1080,162.712,1080C151.864,1080,141.017,1080,130.169,1080C119.322,1080,108.475,1080,97.627,1080C86.78,1080,75.932,1080,65.085,1080C54.237,1080,43.39,1080,32.542,1080C21.695,1080,10.847,1080,5.424,1080L0,1080Z"></path></g><g transform="translate(0, 360)"><path fill="rgb(22, 32, 40)" fill-opacity="1" d="M0,151.966L5.424,170.921C10.847,189.877,21.695,227.789,32.542,246.23C43.39,264.671,54.237,263.643,65.085,245.955C75.932,228.267,86.78,193.92,97.627,184.008C108.475,174.097,119.322,188.622,130.169,195.722C141.017,202.822,151.864,202.497,162.712,198.964C173.559,195.432,184.407,188.691,195.254,182.777C206.102,176.862,216.949,171.773,227.797,147.559C238.644,123.345,249.492,80.005,260.339,54.125C271.186,28.245,282.034,19.824,292.881,31.849C303.729,43.873,314.576,76.342,325.424,96.754C336.271,117.166,347.119,125.521,357.966,127.414C368.814,129.308,379.661,124.74,390.508,135.411C401.356,146.083,412.203,171.994,423.051,190.664C433.898,209.335,444.746,220.766,455.593,238.661C466.441,256.556,477.288,280.916,488.136,276.756C498.983,272.596,509.831,239.917,520.678,206.125C531.525,172.333,542.373,137.429,553.22,138.3C564.068,139.17,574.915,175.814,585.763,169.993C596.61,164.172,607.458,115.886,618.305,128.991C629.153,142.096,640,216.592,650.847,231.215C661.695,245.838,672.542,200.588,683.39,210.669C694.237,220.75,705.085,286.162,715.932,313.73C726.78,341.299,737.627,331.023,748.475,302.179C759.322,273.335,770.169,225.923,781.017,223.014C791.864,220.105,802.712,261.701,813.559,258.284C824.407,254.867,835.254,206.437,846.102,186.523C856.949,166.609,867.797,175.21,878.644,156.372C889.492,137.535,900.339,91.259,911.186,98.788C922.034,106.317,932.881,167.651,943.729,160.234C954.576,152.817,965.424,76.649,976.271,64.968C987.119,53.287,997.966,106.093,1008.814,154.923C1019.661,203.754,1030.508,248.608,1041.356,222.812C1052.203,197.015,1063.051,100.568,1073.898,95.213C1084.746,89.857,1095.593,175.594,1106.441,189.144C1117.288,202.694,1128.136,144.058,1138.983,128.783C1149.831,113.509,1160.678,141.597,1171.525,149.942C1182.373,158.288,1193.22,146.89,1204.068,168.491C1214.915,190.092,1225.763,244.692,1236.61,226.889C1247.458,209.086,1258.305,118.881,1269.153,113.319C1280,107.758,1290.847,186.84,1301.695,212.684C1312.542,238.528,1323.39,211.134,1334.237,221.004C1345.085,230.875,1355.932,278.009,1366.78,278.662C1377.627,279.315,1388.475,233.488,1399.322,181.939C1410.169,130.39,1421.017,73.12,1431.864,68.651C1442.712,64.181,1453.559,112.511,1464.407,162.392C1475.254,212.272,1486.102,263.702,1496.949,249.15C1507.797,234.598,1518.644,154.064,1529.492,115.164C1540.339,76.265,1551.186,79.001,1562.034,111.607C1572.881,144.213,1583.729,206.689,1594.576,247.992C1605.424,289.295,1616.271,309.426,1627.119,294.031C1637.966,278.637,1648.814,227.717,1659.661,223.935C1670.508,220.153,1681.356,263.508,1692.203,262.267C1703.051,261.025,1713.898,215.187,1724.746,211.774C1735.593,208.362,1746.441,247.375,1757.288,256.721C1768.136,266.066,1778.983,245.745,1789.831,217.743C1800.678,189.742,1811.525,154.06,1822.373,133.482C1833.22,112.904,1844.068,107.43,1854.915,90.545C1865.763,73.66,1876.61,45.365,1887.458,79.746C1898.305,114.126,1909.153,211.183,1914.576,259.711L1920,308.239L1920,720L1914.576,720C1909.153,720,1898.305,720,1887.458,720C1876.61,720,1865.763,720,1854.915,720C1844.068,720,1833.22,720,1822.373,720C1811.525,720,1800.678,720,1789.831,720C1778.983,720,1768.136,720,1757.288,720C1746.441,720,1735.593,720,1724.746,720C1713.898,720,1703.051,720,1692.203,720C1681.356,720,1670.508,720,1659.661,720C1648.814,720,1637.966,720,1627.119,720C1616.271,720,1605.424,720,1594.576,720C1583.729,720,1572.881,720,1562.034,720C1551.186,720,1540.339,720,1529.492,720C1518.644,720,1507.797,720,1496.949,720C1486.102,720,1475.254,720,1464.407,720C1453.559,720,1442.712,720,1431.864,720C1421.017,720,1410.169,720,1399.322,720C1388.475,720,1377.627,720,1366.78,720C1355.932,720,1345.085,720,1334.237,720C1323.39,720,1312.542,720,1301.695,720C1290.847,720,1280,720,1269.153,720C1258.305,720,1247.458,720,1236.61,720C1225.763,720,1214.915,720,1204.068,720C1193.22,720,1182.373,720,1171.525,720C1160.678,720,1149.831,720,1138.983,720C1128.136,720,1117.288,720,1106.441,720C1095.593,720,1084.746,720,1073.898,720C1063.051,720,1052.203,720,1041.356,720C1030.508,720,1019.661,720,1008.814,720C997.966,720,987.119,720,976.271,720C965.424,720,954.576,720,943.729,720C932.881,720,922.034,720,911.186,720C900.339,720,889.492,720,878.644,720C867.797,720,856.949,720,846.102,720C835.254,720,824.407,720,813.559,720C802.712,720,791.864,720,781.017,720C770.169,720,759.322,720,748.475,720C737.627,720,726.78,720,715.932,720C705.085,720,694.237,720,683.39,720C672.542,720,661.695,720,650.847,720C640,720,629.153,720,618.305,720C607.458,720,596.61,720,585.763,720C574.915,720,564.068,720,553.22,720C542.373,720,531.525,720,520.678,720C509.831,720,498.983,720,488.136,720C477.288,720,466.441,720,455.593,720C444.746,720,433.898,720,423.051,720C412.203,720,401.356,720,390.508,720C379.661,720,368.814,720,357.966,720C347.119,720,336.271,720,325.424,720C314.576,720,303.729,720,292.881,720C282.034,720,271.186,720,260.339,720C249.492,720,238.644,720,227.797,720C216.949,720,206.102,720,195.254,720C184.407,720,173.559,720,162.712,720C151.864,720,141.017,720,130.169,720C119.322,720,108.475,720,97.627,720C86.78,720,75.932,720,65.085,720C54.237,720,43.39,720,32.542,720C21.695,720,10.847,720,5.424,720L0,720Z"></path></g><g transform="translate(0, 720)"><path fill="rgb(24, 35, 44)" fill-opacity="1" d="M0,341.993L5.424,294.79C10.847,247.587,21.695,153.181,32.542,105.201C43.39,57.22,54.237,55.666,65.085,51.646C75.932,47.626,86.78,41.141,97.627,50.43C108.475,59.719,119.322,84.781,130.169,99.928C141.017,115.075,151.864,120.306,162.712,115.467C173.559,110.629,184.407,95.722,195.254,87.096C206.102,78.471,216.949,76.127,227.797,91.305C238.644,106.483,249.492,139.182,260.339,166.366C271.186,193.549,282.034,215.216,292.881,246.016C303.729,276.817,314.576,316.75,325.424,286.884C336.271,257.017,347.119,157.351,357.966,107.862C368.814,58.374,379.661,59.063,390.508,60.842C401.356,62.621,412.203,65.489,423.051,104.125C433.898,142.761,444.746,217.164,455.593,239.44C466.441,261.715,477.288,231.864,488.136,217.862C498.983,203.86,509.831,205.708,520.678,190.898C531.525,176.088,542.373,144.621,553.22,167.416C564.068,190.211,574.915,267.268,585.763,248.549C596.61,229.83,607.458,115.336,618.305,80.168C629.153,45,640,89.159,650.847,92.966C661.695,96.773,672.542,60.227,683.39,77.673C694.237,95.119,705.085,166.558,715.932,190.453C726.78,214.348,737.627,190.7,748.475,156.325C759.322,121.951,770.169,76.849,781.017,80.03C791.864,83.211,802.712,134.674,813.559,155.606C824.407,176.538,835.254,166.939,846.102,184.343C856.949,201.748,867.797,246.156,878.644,240.184C889.492,234.212,900.339,177.859,911.186,154.589C922.034,131.32,932.881,141.132,943.729,170.644C954.576,200.156,965.424,249.366,976.271,232.827C987.119,216.288,997.966,133.999,1008.814,105.111C1019.661,76.223,1030.508,100.736,1041.356,133.307C1052.203,165.877,1063.051,206.506,1073.898,239.103C1084.746,271.7,1095.593,296.266,1106.441,306.982C1117.288,317.697,1128.136,314.562,1138.983,262.185C1149.831,209.808,1160.678,108.191,1171.525,75.657C1182.373,43.124,1193.22,79.675,1204.068,102.755C1214.915,125.835,1225.763,135.445,1236.61,141.584C1247.458,147.723,1258.305,150.393,1269.153,180.527C1280,210.662,1290.847,268.262,1301.695,266.994C1312.542,265.726,1323.39,205.591,1334.237,193.924C1345.085,182.258,1355.932,219.06,1366.78,222.429C1377.627,225.797,1388.475,195.732,1399.322,164.197C1410.169,132.662,1421.017,99.658,1431.864,119.562C1442.712,139.465,1453.559,212.277,1464.407,247.276C1475.254,282.275,1486.102,279.463,1496.949,251.255C1507.797,223.048,1518.644,169.445,1529.492,153.221C1540.339,136.996,1551.186,158.15,1562.034,152.668C1572.881,147.185,1583.729,115.067,1594.576,138.574C1605.424,162.082,1616.271,241.216,1627.119,278.625C1637.966,316.035,1648.814,311.719,1659.661,286.189C1670.508,260.659,1681.356,213.915,1692.203,214.603C1703.051,215.29,1713.898,263.408,1724.746,273.52C1735.593,283.632,1746.441,255.736,1757.288,223.606C1768.136,191.476,1778.983,155.11,1789.831,174.491C1800.678,193.873,1811.525,269.001,1822.373,274.269C1833.22,279.536,1844.068,214.943,1854.915,192.283C1865.763,169.624,1876.61,188.898,1887.458,182.012C1898.305,175.127,1909.153,142.08,1914.576,125.557L1920,109.034L1920,360L1914.576,360C1909.153,360,1898.305,360,1887.458,360C1876.61,360,1865.763,360,1854.915,360C1844.068,360,1833.22,360,1822.373,360C1811.525,360,1800.678,360,1789.831,360C1778.983,360,1768.136,360,1757.288,360C1746.441,360,1735.593,360,1724.746,360C1713.898,360,1703.051,360,1692.203,360C1681.356,360,1670.508,360,1659.661,360C1648.814,360,1637.966,360,1627.119,360C1616.271,360,1605.424,360,1594.576,360C1583.729,360,1572.881,360,1562.034,360C1551.186,360,1540.339,360,1529.492,360C1518.644,360,1507.797,360,1496.949,360C1486.102,360,1475.254,360,1464.407,360C1453.559,360,1442.712,360,1431.864,360C1421.017,360,1410.169,360,1399.322,360C1388.475,360,1377.627,360,1366.78,360C1355.932,360,1345.085,360,1334.237,360C1323.39,360,1312.542,360,1301.695,360C1290.847,360,1280,360,1269.153,360C1258.305,360,1247.458,360,1236.61,360C1225.763,360,1214.915,360,1204.068,360C1193.22,360,1182.373,360,1171.525,360C1160.678,360,1149.831,360,1138.983,360C1128.136,360,1117.288,360,1106.441,360C1095.593,360,1084.746,360,1073.898,360C1063.051,360,1052.203,360,1041.356,360C1030.508,360,1019.661,360,1008.814,360C997.966,360,987.119,360,976.271,360C965.424,360,954.576,360,943.729,360C932.881,360,922.034,360,911.186,360C900.339,360,889.492,360,878.644,360C867.797,360,856.949,360,846.102,360C835.254,360,824.407,360,813.559,360C802.712,360,791.864,360,781.017,360C770.169,360,759.322,360,748.475,360C737.627,360,726.78,360,715.932,360C705.085,360,694.237,360,683.39,360C672.542,360,661.695,360,650.847,360C640,360,629.153,360,618.305,360C607.458,360,596.61,360,585.763,360C574.915,360,564.068,360,553.22,360C542.373,360,531.525,360,520.678,360C509.831,360,498.983,360,488.136,360C477.288,360,466.441,360,455.593,360C444.746,360,433.898,360,423.051,360C412.203,360,401.356,360,390.508,360C379.661,360,368.814,360,357.966,360C347.119,360,336.271,360,325.424,360C314.576,360,303.729,360,292.881,360C282.034,360,271.186,360,260.339,360C249.492,360,238.644,360,227.797,360C216.949,360,206.102,360,195.254,360C184.407,360,173.559,360,162.712,360C151.864,360,141.017,360,130.169,360C119.322,360,108.475,360,97.627,360C86.78,360,75.932,360,65.085,360C54.237,360,43.39,360,32.542,360C21.695,360,10.847,360,5.424,360L0,360Z"></path></g></g></svg>